<?xml version="1.0" encoding="UTF-8" standalone="no"?>
<!-- Created with Inkscape (http://www.inkscape.org/) -->

<svg
   width="64"
   height="64"
   viewBox="0 0 64 64"
   version="1.1"
   id="svg1"
   inkscape:version="1.4 (86a8ad7, 2024-10-11)"
   sodipodi:docname="snowflake.svg"
   xmlns:inkscape="http://www.inkscape.org/namespaces/inkscape"
   xmlns:sodipodi="http://sodipodi.sourceforge.net/DTD/sodipodi-0.dtd"
   xmlns="http://www.w3.org/2000/svg"
   xmlns:svg="http://www.w3.org/2000/svg">
  <sodipodi:namedview
     id="namedview1"
     pagecolor="#3d3d3d"
     bordercolor="#000000"
     borderopacity="0.25"
     inkscape:showpageshadow="2"
     inkscape:pageopacity="0.0"
     inkscape:pagecheckerboard="0"
     inkscape:deskcolor="#2b2b2b"
     inkscape:document-units="px"
     inkscape:zoom="5.0933785"
     inkscape:cx="61.256001"
     inkscape:cy="55.464168"
     inkscape:window-width="1920"
     inkscape:window-height="1017"
     inkscape:window-x="1912"
     inkscape:window-y="-8"
     inkscape:window-maximized="1"
     inkscape:current-layer="layer1" />
  <defs
     id="defs1">
    <inkscape:path-effect
       effect="copy_rotate"
       starting_point="127.95132,60.166377"
       origin="32,32"
       id="path-effect1"
       is_visible="true"
       lpeversion="1.2"
       lpesatellites=""
       method="normal"
       num_copies="6"
       starting_angle="-16.359529"
       rotation_angle="60"
       gap="-0.01"
       copies_to_360="true"
       mirror_copies="false"
       split_items="false"
       link_styles="false" />
  </defs>
  <g
     inkscape:label="Layer 1"
     inkscape:groupmode="layer"
     id="layer1"
     transform="translate(7.373022,13.045366)">
    <path
       style="fill:#ffffff;fill-opacity:1;stroke:none;stroke-width:10.5285;stroke-linecap:round"
       d="M 29.673243,30.207937 47.05958,12.07365 71.373022,10.105342 58.856391,27.302104 34.279514,34.001595 Z M 29.284649,33.118999 22.273065,8.9948465 32.725181,-13.045366 41.359698,6.3927346 34.873189,31.026681 Z M 31.611406,34.911062 7.2134849,28.921196 -6.6478411,8.8492918 14.503307,11.090631 32.593675,29.025086 Z M 34.326757,33.792063 16.94042,51.92635 -7.3730219,53.894658 5.1436086,36.697896 29.720486,29.998405 Z M 34.715351,30.881001 41.726935,55.005153 31.274819,77.045366 22.640302,57.607265 29.126811,32.973319 Z M 32.388594,29.088938 56.786515,35.078804 70.647841,55.150708 49.496693,52.909369 31.406325,34.974914 Z"
       id="path1"
       inkscape:path-effect="#path-effect1"
       inkscape:original-d="M 29.262687,30.935855 40.837334,8.6386668 63.612001,-0.09816667 56.445834,19.927834 34.751,33.2785 Z"
       sodipodi:nodetypes="cccccc"
       transform="matrix(0.81273924,0,0,0.71039493,-1.3806777,-3.7780042)" />
  </g>
</svg>
